<?xml version="1.0" standalone="no"?>
<!DOCTYPE svg PUBLIC "-//W3C//DTD SVG 20010904//EN"
 "http://www.w3.org/TR/2001/REC-SVG-20010904/DTD/svg10.dtd">
<svg version="1.0" xmlns="http://www.w3.org/2000/svg"
 width="700.000000pt" height="700.000000pt" viewBox="0 0 700.000000 700.000000"
 preserveAspectRatio="xMidYMid meet">
<metadata>
Created by potrace 1.14, written by Peter Selinger 2001-2017
</metadata>
<g transform="translate(0.000000,700.000000) scale(0.100000,-0.100000)"
fill="#000000" stroke="none">
<path d="M4680 6153 c-260 -35 -486 -129 -675 -281 -76 -61 -2807 -2789 -2865
-2862 -158 -198 -258 -429 -288 -660 -15 -117 -7 -340 17 -453 97 -469 433
-840 893 -991 145 -48 262 -64 438 -61 292 5 548 94 785 274 65 49 2790 2770
2866 2861 72 87 115 152 163 247 42 83 90 207 100 256 3 12 12 54 21 92 23 97
28 336 10 450 -46 294 -170 539 -376 745 -257 256 -582 389 -944 387 -66 -1
-131 -2 -145 -4z m395 -303 c196 -49 354 -138 495 -280 199 -198 299 -431 306
-710 6 -238 -50 -426 -189 -635 -25 -37 -307 -327 -746 -767 l-706 -707 -742
742 -742 743 712 710 c545 544 729 722 786 759 124 82 287 144 421 161 25 4
47 8 49 10 3 3 63 3 135 1 92 -3 158 -11 221 -27z"/>
</g>
</svg>
